<svg id="kity_svg_6" xmlns="http://www.w3.org/2000/svg" xmlns:xlink="http://www.w3.org/1999/xlink" version="1.1" width="1287" height="514" style="background: rgb(251, 251, 251); visibility: visible;" viewBox="0 0 1287 514"><defs id="kity_defs_7"><linearGradient id="kity_linearGradient_17" x1="0" y1="0" x2="0" y2="1"><stop id="kity_stop_18" offset="0" stop-color="rgb(255, 255, 255)"></stop><stop id="kity_stop_19" offset="1" stop-color="rgb(204, 204, 204)"></stop></linearGradient><marker id="kity_marker_2" orient="auto" refX="6" refY="0" viewBox="-7 -7 14 14" markerWidth="7" markerHeight="7" markerUnits="userSpaceOnUse"><path id="kity_path_3" fill="rgb(115, 161, 191)" stroke="none" d="M6,0A6,6,0,1,1,-6,0A6,6,0,1,1,6,0"></path></marker></defs><g id="kity_g_8"><g id="minder1" text-rendering="optimize-speed"><g id="minder_connect_group1"><path id="kity_path_31" fill="none" stroke="rgb(115, 161, 191)" stroke-width="1" d="M76.5,210.5A169,174,0,0,1,245.5,36.5"></path><path id="kity_path_33" fill="none" stroke="rgb(115, 161, 191)" stroke-width="1" d="M384.5,36.5C399.5,36.5,399.5,52.5,414.5,52.5L927.5,52.5"></path><path id="kity_path_35" fill="none" stroke="rgb(115, 161, 191)" stroke-width="1" d="M76.5,210.5A169,42,0,0,1,245.5,168.5"></path><path id="kity_path_37" fill="none" stroke="rgb(115, 161, 191)" stroke-width="1" d="M384.5,168.5C399.5,168.5,399.5,184.5,414.5,184.5L926.5,184.5"></path><path id="kity_path_39" fill="none" stroke="rgb(115, 161, 191)" stroke-width="1" d="M76.5,210.5A143,46,0,0,0,219.5,256.5"></path><path id="kity_path_41" fill="none" stroke="rgb(115, 161, 191)" stroke-width="1" d="M358.5,256.5C385.5,256.5,385.5,236.5,412.5,236.5L1267.5,236.5"></path><path id="kity_path_43" fill="none" stroke="rgb(115, 161, 191)" stroke-width="1" d="M358.5,256.5C387.5,256.5,387.5,307.5,416.5,307.5L829.5,307.5"></path><path id="kity_path_45" fill="none" stroke="rgb(115, 161, 191)" stroke-width="1" d="M76.5,210.5A148,240,0,0,0,224.5,450.5"></path><path id="kity_path_47" fill="none" stroke="rgb(115, 161, 191)" stroke-width="1" d="M363.5,450.5C366.5,450.5,366.5,382.5,369.5,382.5L1240.5,382.5"></path><path id="kity_path_49" fill="none" stroke="rgb(115, 161, 191)" stroke-width="1" d="M363.5,450.5C372.5,450.5,372.5,494.5,381.5,494.5L548.5,494.5"></path></g><g id="minder_node1"><path id="node_outline1" fill="rgb(115, 161, 191)" stroke="rgb(115, 161, 191)" d="M25.5,190.5h102a5,5,0,0,1,5,5v30a5,5,0,0,1,-5,5h-102a5,5,0,0,1,-5,-5v-30a5,5,0,0,1,5,-5z" stroke-width="3"></path><g id="node_text1" fill="white"><text id="kity_text_22" text-rendering="inherit" font-size="16" dy=".8em" y="202.5" x="44.5">配置分类</text></g></g><g id="kity_g_12"><path id="kity_path_13" fill="none" stroke="none" d="M44.5,210.5h0v0h0z"></path></g><g id="kity_g_14"><path id="kity_path_15" fill="none" stroke="none" d="M44.5,210.5h0v0h0z"></path><path id="kity_path_16" fill="none" stroke="none"></path></g><g id="minder_node2"><g id="node_expander2" style="cursor: pointer;"><path id="kity_path_124" fill="white" stroke="gray" d="M246.5,36.5A6,6,0,1,1,234.5,36.5A6,6,0,1,1,246.5,36.5"></path><path id="kity_path_125" fill="none" stroke="gray" d="M236,36.5L245,36.5"></path></g><path id="node_outline3" fill="rgb(238, 243, 246)" stroke="rgb(115, 161, 191)" d="M250.5,20.5h131a3,3,0,0,1,3,3v26a3,3,0,0,1,-3,3h-131a3,3,0,0,1,-3,-3v-26a3,3,0,0,1,3,-3z" stroke-width="1"></path><g id="node_text3" fill="black"><text id="kity_text_53" text-rendering="inherit" font-size="18" dy=".8em" y="27.5" x="292.5">惯例配置</text></g><g id="node_priority1"><path id="kity_path_72" fill="#840023" stroke="none" d="M268,40c0,3.866,3.134,7,7,7h6c3.866,0,7,-3.134,7,-7V34H268V40z"></path><path id="kity_path_73" fill="#FF1200" stroke="none" d="M288,37c0,3.866,-3.134,7,-7,7H275c-3.866,0,-7,-3.134,-7,-7V34c0,-3.866,3.134,-7,7,-7h6c3.866,0,7,3.134,7,7V37z" opacity="0.8"></path><text id="kity_text_74" text-rendering="geometricPrecision" x="277" y="36.5" text-anchor="middle" font-style="italic" font-size="12" fill="white" dy="4">1</text></g></g><g id="minder_node3"><g id="node_expander1" display="none" style="cursor: pointer;"><path id="kity_path_121" fill="white" stroke="gray" d="M424.5,36.5A6,6,0,1,1,412.5,36.5A6,6,0,1,1,424.5,36.5"></path><path id="kity_path_122" fill="none" stroke="gray"></path></g><path id="node_outline2" fill="none" stroke="none" d="M429.5,23.5h493a5,5,0,0,1,5,5v16a5,5,0,0,1,-5,5h-493a5,5,0,0,1,-5,-5v-16a5,5,0,0,1,5,-5z"></path><g id="node_text2" fill="black"><text id="kity_text_51" text-rendering="inherit" font-size="16" dy=".8em" y="28.5" x="434.5">核心框架内置的配置文件(thinkphp/convention.php)，无需更改。</text></g></g><g id="minder_node4"><g id="node_expander4" style="cursor: pointer;"><path id="kity_path_130" fill="white" stroke="gray" d="M246.5,168.5A6,6,0,1,1,234.5,168.5A6,6,0,1,1,246.5,168.5"></path><path id="kity_path_131" fill="none" stroke="gray" d="M236,168.5L245,168.5"></path></g><path id="node_outline5" fill="rgb(238, 243, 246)" stroke="rgb(115, 161, 191)" d="M250.5,152.5h131a3,3,0,0,1,3,3v26a3,3,0,0,1,-3,3h-131a3,3,0,0,1,-3,-3v-26a3,3,0,0,1,3,-3z" stroke-width="1"></path><g id="node_text5" fill="black"><text id="kity_text_57" text-rendering="inherit" font-size="18" dy=".8em" y="159.5" x="292.5">应用配置</text></g><g id="node_priority2"><path id="kity_path_77" fill="#01467F" stroke="none" d="M268,172c0,3.866,3.134,7,7,7h6c3.866,0,7,-3.134,7,-7V166H268V172z"></path><path id="kity_path_78" fill="#0074FF" stroke="none" d="M288,169c0,3.866,-3.134,7,-7,7H275c-3.866,0,-7,-3.134,-7,-7V166c0,-3.866,3.134,-7,7,-7h6c3.866,0,7,3.134,7,7V169z" opacity="0.8"></path><text id="kity_text_79" text-rendering="geometricPrecision" x="277" y="168.5" text-anchor="middle" font-style="italic" font-size="12" fill="white" dy="4">2</text></g></g><g id="minder_node5"><g id="node_expander3" display="none" style="cursor: pointer;"><path id="kity_path_127" fill="white" stroke="gray" d="M424.5,168.5A6,6,0,1,1,412.5,168.5A6,6,0,1,1,424.5,168.5"></path><path id="kity_path_128" fill="none" stroke="gray"></path></g><path id="node_outline4" fill="none" stroke="none" d="M429.5,155.5h492a5,5,0,0,1,5,5v16a5,5,0,0,1,-5,5h-492a5,5,0,0,1,-5,-5v-16a5,5,0,0,1,5,-5z"></path><g id="node_text4" fill="black"><text id="kity_text_55" text-rendering="inherit" font-size="16" dy=".8em" y="160.5" x="434.5">每个应用的全局配置文件（项目根目录下的config目录下的文件）。</text></g></g><g id="minder_node6"><g id="node_expander7" style="cursor: pointer;"><path id="kity_path_139" fill="white" stroke="gray" d="M371.5,256.5A6,6,0,1,1,359.5,256.5A6,6,0,1,1,371.5,256.5"></path><path id="kity_path_140" fill="none" stroke="gray" d="M361,256.5L370,256.5"></path></g><path id="node_outline8" fill="rgb(238, 243, 246)" stroke="rgb(115, 161, 191)" d="M224.5,240.5h131a3,3,0,0,1,3,3v26a3,3,0,0,1,-3,3h-131a3,3,0,0,1,-3,-3v-26a3,3,0,0,1,3,-3z" stroke-width="1"></path><g id="node_text8" fill="black"><text id="kity_text_63" text-rendering="inherit" font-size="18" dy=".8em" y="247.5" x="266.5">模块配置</text></g><g id="node_priority5"><path id="kity_path_92" fill="#006300" stroke="none" d="M242,260c0,3.866,3.134,7,7,7h6c3.866,0,7,-3.134,7,-7V254H242V260z"></path><path id="kity_path_93" fill="#00AF00" stroke="none" d="M262,257c0,3.866,-3.134,7,-7,7H249c-3.866,0,-7,-3.134,-7,-7V254c0,-3.866,3.134,-7,7,-7h6c3.866,0,7,3.134,7,7V257z" opacity="0.8"></path><text id="kity_text_94" text-rendering="geometricPrecision" x="251" y="256.5" text-anchor="middle" font-style="italic" font-size="12" fill="white" dy="4">3</text></g></g><g id="minder_node7"><g id="node_expander5" display="none" style="cursor: pointer;"><path id="kity_path_133" fill="white" stroke="gray" d="M1279.5,218.5A6,6,0,1,1,1267.5,218.5A6,6,0,1,1,1279.5,218.5"></path><path id="kity_path_134" fill="none" stroke="gray"></path></g><path id="node_outline6" fill="none" stroke="none" d="M427.5,203.5h835a5,5,0,0,1,5,5v20a5,5,0,0,1,-5,5h-835a5,5,0,0,1,-5,-5v-20a5,5,0,0,1,5,-5z"></path><g id="node_text6" fill="black"><text id="kity_text_59" text-rendering="inherit" font-size="16" dy=".8em" y="210.5" x="457.5">每个模块的配置文件（相同的配置参数会覆盖应用配置），有部分配置参数模块配置是无效的，因为已经使用过。</text></g><g id="node_priority3"><path id="kity_path_82" fill="#840023" stroke="none" d="M433,222c0,3.866,3.134,7,7,7h6c3.866,0,7,-3.134,7,-7V216H433V222z"></path><path id="kity_path_83" fill="#FF1200" stroke="none" d="M453,219c0,3.866,-3.134,7,-7,7H440c-3.866,0,-7,-3.134,-7,-7V216c0,-3.866,3.134,-7,7,-7h6c3.866,0,7,3.134,7,7V219z" opacity="0.8"></path><text id="kity_text_84" text-rendering="geometricPrecision" x="442" y="218.5" text-anchor="middle" font-style="italic" font-size="12" fill="white" dy="4">1</text></g></g><g id="minder_node8"><g id="node_expander6" display="none" style="cursor: pointer;"><path id="kity_path_136" fill="white" stroke="gray" d="M841.5,289.5A6,6,0,1,1,829.5,289.5A6,6,0,1,1,841.5,289.5"></path><path id="kity_path_137" fill="none" stroke="gray"></path></g><path id="node_outline7" fill="none" stroke="none" d="M431.5,274.5h393a5,5,0,0,1,5,5v20a5,5,0,0,1,-5,5h-393a5,5,0,0,1,-5,-5v-20a5,5,0,0,1,5,-5z"></path><g id="node_text7" fill="black"><text id="kity_text_61" text-rendering="inherit" font-size="16" dy=".8em" y="281.5" x="461.5">比如index模块 =》 index/config/database.php</text></g><g id="node_priority4"><path id="kity_path_87" fill="#01467F" stroke="none" d="M437,293c0,3.866,3.134,7,7,7h6c3.866,0,7,-3.134,7,-7V287H437V293z"></path><path id="kity_path_88" fill="#0074FF" stroke="none" d="M457,290c0,3.866,-3.134,7,-7,7H444c-3.866,0,-7,-3.134,-7,-7V287c0,-3.866,3.134,-7,7,-7h6c3.866,0,7,3.134,7,7V290z" opacity="0.8"></path><text id="kity_text_89" text-rendering="geometricPrecision" x="446" y="289.5" text-anchor="middle" font-style="italic" font-size="12" fill="white" dy="4">2</text></g></g><g id="minder_node9"><g id="node_expander10" style="cursor: pointer;"><path id="kity_path_148" fill="white" stroke="gray" d="M376.5,450.5A6,6,0,1,1,364.5,450.5A6,6,0,1,1,376.5,450.5"></path><path id="kity_path_149" fill="none" stroke="gray" d="M366,450.5L375,450.5"></path></g><path id="node_outline11" fill="rgb(238, 243, 246)" stroke="rgb(115, 161, 191)" d="M229.5,434.5h131a3,3,0,0,1,3,3v26a3,3,0,0,1,-3,3h-131a3,3,0,0,1,-3,-3v-26a3,3,0,0,1,3,-3z" stroke-width="1"></path><g id="node_text11" fill="black"><text id="kity_text_69" text-rendering="inherit" font-size="18" dy=".8em" y="441.5" x="271.5">动态配置</text></g><g id="node_priority8"><path id="kity_path_107" fill="#B25000" stroke="none" d="M247,454c0,3.866,3.134,7,7,7h6c3.866,0,7,-3.134,7,-7V448H247V454z"></path><path id="kity_path_108" fill="#FF962E" stroke="none" d="M267,451c0,3.866,-3.134,7,-7,7H254c-3.866,0,-7,-3.134,-7,-7V448c0,-3.866,3.134,-7,7,-7h6c3.866,0,7,3.134,7,7V451z" opacity="0.8"></path><text id="kity_text_109" text-rendering="geometricPrecision" x="256" y="450.5" text-anchor="middle" font-style="italic" font-size="12" fill="white" dy="4">4</text></g></g><g id="minder_node10"><g id="node_expander8" display="none" style="cursor: pointer;"><path id="kity_path_142" fill="white" stroke="gray" d="M1252.5,364.5A6,6,0,1,1,1240.5,364.5A6,6,0,1,1,1252.5,364.5"></path><path id="kity_path_143" fill="none" stroke="gray"></path></g><path id="node_outline9" fill="none" stroke="none" d="M384.5,349.5h851a5,5,0,0,1,5,5v20a5,5,0,0,1,-5,5h-851a5,5,0,0,1,-5,-5v-20a5,5,0,0,1,5,-5z"></path><g id="node_text9" fill="black"><text id="kity_text_65" text-rendering="inherit" font-size="16" dy=".8em" y="356.5" x="414.5">主要是指在控制器或者行为中进行（动态）更改配置，该配置方式只在当次请求有效，因为不会保存到配置文件中。</text></g><g id="node_priority6"><path id="kity_path_97" fill="#840023" stroke="none" d="M390,368c0,3.866,3.134,7,7,7h6c3.866,0,7,-3.134,7,-7V362H390V368z"></path><path id="kity_path_98" fill="#FF1200" stroke="none" d="M410,365c0,3.866,-3.134,7,-7,7H397c-3.866,0,-7,-3.134,-7,-7V362c0,-3.866,3.134,-7,7,-7h6c3.866,0,7,3.134,7,7V365z" opacity="0.8"></path><text id="kity_text_99" text-rendering="geometricPrecision" x="399" y="364.5" text-anchor="middle" font-style="italic" font-size="12" fill="white" dy="4">1</text></g></g><g id="minder_node11"><g id="node_expander9" display="none" style="cursor: pointer;"><path id="kity_path_145" fill="white" stroke="gray" d="M560.5,476.5A6,6,0,1,1,548.5,476.5A6,6,0,1,1,560.5,476.5"></path><path id="kity_path_146" fill="none" stroke="gray"></path></g><path id="node_outline10" fill="none" stroke="none" d="M396.5,461.5h147a5,5,0,0,1,5,5v20a5,5,0,0,1,-5,5h-147a5,5,0,0,1,-5,-5v-20a5,5,0,0,1,5,-5z"></path><g id="node_text10" fill="black"><text id="kity_text_67" text-rendering="inherit" font-size="16" dy=".8em" y="468.5" x="426.5">这种建议少用。</text></g><g id="node_priority7"><path id="kity_path_102" fill="#01467F" stroke="none" d="M402,480c0,3.866,3.134,7,7,7h6c3.866,0,7,-3.134,7,-7V474H402V480z"></path><path id="kity_path_103" fill="#0074FF" stroke="none" d="M422,477c0,3.866,-3.134,7,-7,7H409c-3.866,0,-7,-3.134,-7,-7V474c0,-3.866,3.134,-7,7,-7h6c3.866,0,7,3.134,7,7V477z" opacity="0.8"></path><text id="kity_text_104" text-rendering="geometricPrecision" x="411" y="476.5" text-anchor="middle" font-style="italic" font-size="12" fill="white" dy="4">2</text></g></g></g></g></svg>