<svg id="kity_svg_6" xmlns="http://www.w3.org/2000/svg" xmlns:xlink="http://www.w3.org/1999/xlink" version="1.1" width="1122" height="664" style="background: rgb(251, 251, 251); visibility: visible;" viewBox="0 0 1122 664"><defs id="kity_defs_7"><linearGradient id="kity_linearGradient_17" x1="0" y1="0" x2="0" y2="1"><stop id="kity_stop_18" offset="0" stop-color="rgb(255, 255, 255)"></stop><stop id="kity_stop_19" offset="1" stop-color="rgb(204, 204, 204)"></stop></linearGradient><marker id="kity_marker_2" orient="auto" refX="6" refY="0" viewBox="-7 -7 14 14" markerWidth="7" markerHeight="7" markerUnits="userSpaceOnUse"><path id="kity_path_3" fill="rgb(115, 161, 191)" stroke="none" d="M6,0A6,6,0,1,1,-6,0A6,6,0,1,1,6,0"></path></marker></defs><g id="kity_g_8"><g id="minder1" text-rendering="optimize-speed"><g id="minder_connect_group1"><path id="kity_path_31" fill="none" stroke="rgb(115, 161, 191)" stroke-width="1" d="M101,356.5A169.5,213,0,0,1,270.5,143.5"></path><path id="kity_path_33" fill="none" stroke="rgb(115, 161, 191)" stroke-width="1" d="M503.5,143.5C518.5,143.5,518.5,160.5,533.5,160.5L631.5,160.5"></path><path id="kity_path_35" fill="none" stroke="rgb(115, 161, 191)" stroke-width="1" d="M631.5,160.5C647.5,160.5,647.5,160.5,663.5,160.5L778.5,160.5"></path><path id="kity_path_37" fill="none" stroke="rgb(115, 161, 191)" stroke-width="1" d="M778.5,160.5C806.5,160.5,806.5,120.5,834.5,120.5L1102.5,120.5"></path><path id="kity_path_39" fill="none" stroke="rgb(115, 161, 191)" stroke-width="1" d="M778.5,160.5C810,160.5,810,202.5,841.5,202.5L1030.5,202.5"></path><path id="kity_path_41" fill="none" stroke="rgb(115, 161, 191)" stroke-width="1" d="M631.5,160.5C652,160.5,652,281.5,672.5,281.5L727.5,281.5"></path><path id="kity_path_43" fill="none" stroke="rgb(115, 161, 191)" stroke-width="1" d="M631.5,160.5C646,160.5,646,51.5,660.5,51.5L880.5,51.5"></path><path id="kity_path_45" fill="none" stroke="rgb(115, 161, 191)" stroke-width="1" d="M101,356.5A167.5,31,0,0,1,268.5,325.5"></path><path id="kity_path_47" fill="none" stroke="rgb(115, 161, 191)" stroke-width="1" d="M101,356.5A168.5,63,0,0,0,269.5,419.5"></path><path id="kity_path_49" fill="none" stroke="rgb(115, 161, 191)" stroke-width="1" d="M101,356.5A168.5,188,0,0,0,269.5,544.5"></path><path id="kity_path_51" fill="none" stroke="rgb(115, 161, 191)" stroke-width="1" d="M432.5,544.5C447.5,544.5,447.5,476.5,462.5,476.5L558.5,476.5"></path><path id="kity_path_53" fill="none" stroke="rgb(115, 161, 191)" stroke-width="1" d="M432.5,544.5C447.5,544.5,447.5,532.5,462.5,532.5L572.5,532.5"></path><path id="kity_path_55" fill="none" stroke="rgb(115, 161, 191)" stroke-width="1" d="M432.5,544.5C447.5,544.5,447.5,588.5,462.5,588.5L577.5,588.5"></path><path id="kity_path_57" fill="none" stroke="rgb(115, 161, 191)" stroke-width="1" d="M432.5,544.5C447.5,544.5,447.5,644.5,462.5,644.5L564.5,644.5"></path></g><g id="minder_node1"><path id="node_outline1" fill="rgb(115, 161, 191)" stroke="rgb(57, 80, 96)" d="M25.5,335.5h151a5,5,0,0,1,5,5v32a5,5,0,0,1,-5,5h-151a5,5,0,0,1,-5,-5v-32a5,5,0,0,1,5,-5z" stroke-width="3"></path><g id="node_text1" fill="white"><text id="kity_text_22" text-rendering="inherit" font-size="18" dy=".8em" y="347.5" x="44.5">Config核心类</text></g></g><g id="kity_g_12"><path id="kity_path_13" fill="none" stroke="none" d="M44.5,356.5h0v0h0z"></path></g><g id="kity_g_14"><path id="kity_path_15" fill="none" stroke="none" d="M44.5,356.5h0v0h0z"></path><path id="kity_path_16" fill="none" stroke="none"></path></g><g id="minder_node2"><g id="node_expander7" style="cursor: pointer;"><path id="kity_path_139" fill="white" stroke="gray" d="M271.5,143.5A6,6,0,1,1,259.5,143.5A6,6,0,1,1,271.5,143.5"></path><path id="kity_path_140" fill="none" stroke="gray" d="M261,143.5L270,143.5"></path></g><path id="node_outline8" fill="rgb(238, 243, 246)" stroke="rgb(115, 161, 191)" d="M275.5,127.5h225a3,3,0,0,1,3,3v26a3,3,0,0,1,-3,3h-225a3,3,0,0,1,-3,-3v-26a3,3,0,0,1,3,-3z" stroke-width="1"></path><g id="node_text8" fill="black"><text id="kity_text_71" text-rendering="inherit" font-size="18" dy=".8em" y="134.5" x="317.5">加载配置文件:load()</text></g><g id="node_priority1"><path id="kity_path_88" fill="#840023" stroke="none" d="M293,147c0,3.866,3.134,7,7,7h6c3.866,0,7,-3.134,7,-7V141H293V147z"></path><path id="kity_path_89" fill="#FF1200" stroke="none" d="M313,144c0,3.866,-3.134,7,-7,7H300c-3.866,0,-7,-3.134,-7,-7V141c0,-3.866,3.134,-7,7,-7h6c3.866,0,7,3.134,7,7V144z" opacity="0.8"></path><text id="kity_text_90" text-rendering="geometricPrecision" x="302" y="143.5" text-anchor="middle" font-style="italic" font-size="12" fill="white" dy="4">1</text></g></g><g id="minder_node3"><g id="node_expander6" style="cursor: pointer;"><path id="kity_path_136" fill="white" stroke="gray" d="M543.5,143.5A6,6,0,1,1,531.5,143.5A6,6,0,1,1,543.5,143.5"></path><path id="kity_path_137" fill="none" stroke="gray" d="M533,143.5L542,143.5"></path></g><path id="node_outline7" fill="none" stroke="none" d="M548.5,129.5h78a5,5,0,0,1,5,5v18a5,5,0,0,1,-5,5h-78a5,5,0,0,1,-5,-5v-18a5,5,0,0,1,5,-5z"></path><g id="node_text7" fill="black"><text id="kity_text_69" text-rendering="inherit" font-size="18" dy=".8em" y="134.5" x="553.5">loadFile</text></g></g><g id="minder_node4"><g id="node_expander3" style="cursor: pointer;"><path id="kity_path_127" fill="white" stroke="gray" d="M673.5,143.5A6,6,0,1,1,661.5,143.5A6,6,0,1,1,673.5,143.5"></path><path id="kity_path_128" fill="none" stroke="gray" d="M663,143.5L672,143.5"></path></g><path id="node_outline4" fill="none" stroke="none" d="M678.5,129.5h95a5,5,0,0,1,5,5v18a5,5,0,0,1,-5,5h-95a5,5,0,0,1,-5,-5v-18a5,5,0,0,1,5,-5z"></path><g id="node_text4" fill="black"><text id="kity_text_63" text-rendering="inherit" font-size="18" dy=".8em" y="134.5" x="683.5">parse处理</text></g></g><g id="minder_node5"><g id="node_expander1" display="none" style="cursor: pointer;"><path id="kity_path_121" fill="white" stroke="gray" d="M844.5,103.5A6,6,0,1,1,832.5,103.5A6,6,0,1,1,844.5,103.5"></path><path id="kity_path_122" fill="none" stroke="gray"></path></g><path id="node_outline2" fill="none" stroke="none" d="M849.5,89.5h248a5,5,0,0,1,5,5v18a5,5,0,0,1,-5,5h-248a5,5,0,0,1,-5,-5v-18a5,5,0,0,1,5,-5z"></path><g id="node_text2" fill="black"><text id="kity_text_59" text-rendering="inherit" font-size="18" dy=".8em" y="94.5" x="854.5">不同的文件类型： ini json xml</text></g></g><g id="minder_node6"><g id="node_expander2" display="none" style="cursor: pointer;"><path id="kity_path_124" fill="white" stroke="gray" d="M851.5,185.5A6,6,0,1,1,839.5,185.5A6,6,0,1,1,851.5,185.5"></path><path id="kity_path_125" fill="none" stroke="gray"></path></g><path id="node_outline3" fill="none" stroke="none" d="M856.5,171.5h169a5,5,0,0,1,5,5v18a5,5,0,0,1,-5,5h-169a5,5,0,0,1,-5,-5v-18a5,5,0,0,1,5,-5z"></path><g id="node_text3" fill="black"><text id="kity_text_61" text-rendering="inherit" font-size="18" dy=".8em" y="176.5" x="861.5">设计模式 - 工厂模式</text></g></g><g id="minder_node7"><g id="node_expander4" display="none" style="cursor: pointer;"><path id="kity_path_130" fill="white" stroke="gray" d="M682.5,264.5A6,6,0,1,1,670.5,264.5A6,6,0,1,1,682.5,264.5"></path><path id="kity_path_131" fill="none" stroke="gray"></path></g><path id="node_outline5" fill="none" stroke="none" d="M687.5,250.5h35a5,5,0,0,1,5,5v18a5,5,0,0,1,-5,5h-35a5,5,0,0,1,-5,-5v-18a5,5,0,0,1,5,-5z"></path><g id="node_text5" fill="black"><text id="kity_text_65" text-rendering="inherit" font-size="18" dy=".8em" y="255.5" x="692.5">set</text></g></g><g id="minder_node8"><g id="node_expander5" display="none" style="cursor: pointer;"><path id="kity_path_133" fill="white" stroke="gray" d="M670.5,34.5A6,6,0,1,1,658.5,34.5A6,6,0,1,1,670.5,34.5"></path><path id="kity_path_134" fill="none" stroke="gray"></path></g><path id="node_outline6" fill="none" stroke="none" d="M675.5,20.5h200a5,5,0,0,1,5,5v18a5,5,0,0,1,-5,5h-200a5,5,0,0,1,-5,-5v-18a5,5,0,0,1,5,-5z"></path><g id="node_text6" fill="black"><text id="kity_text_67" text-rendering="inherit" font-size="18" dy=".8em" y="25.5" x="680.5">php yaml格式文件处理</text></g></g><g id="minder_node9"><g id="node_expander8" display="none" style="cursor: pointer;"><path id="kity_path_142" fill="white" stroke="gray" d="M269.5,325.5A6,6,0,1,1,257.5,325.5A6,6,0,1,1,269.5,325.5"></path><path id="kity_path_143" fill="none" stroke="gray"></path></g><path id="node_outline9" fill="rgb(238, 243, 246)" stroke="rgb(115, 161, 191)" d="M273.5,309.5h84a3,3,0,0,1,3,3v26a3,3,0,0,1,-3,3h-84a3,3,0,0,1,-3,-3v-26a3,3,0,0,1,3,-3z" stroke-width="1"></path><g id="node_text9" fill="black"><text id="kity_text_73" text-rendering="inherit" font-size="18" dy=".8em" y="316.5" x="315.5">set</text></g><g id="node_priority2"><path id="kity_path_93" fill="#01467F" stroke="none" d="M291,329c0,3.866,3.134,7,7,7h6c3.866,0,7,-3.134,7,-7V323H291V329z"></path><path id="kity_path_94" fill="#0074FF" stroke="none" d="M311,326c0,3.866,-3.134,7,-7,7H298c-3.866,0,-7,-3.134,-7,-7V323c0,-3.866,3.134,-7,7,-7h6c3.866,0,7,3.134,7,7V326z" opacity="0.8"></path><text id="kity_text_95" text-rendering="geometricPrecision" x="300" y="325.5" text-anchor="middle" font-style="italic" font-size="12" fill="white" dy="4">2</text></g></g><g id="minder_node10"><g id="node_expander9" display="none" style="cursor: pointer;"><path id="kity_path_145" fill="white" stroke="gray" d="M379.5,419.5A6,6,0,1,1,367.5,419.5A6,6,0,1,1,379.5,419.5"></path><path id="kity_path_146" fill="none" stroke="gray"></path></g><path id="node_outline10" fill="rgb(238, 243, 246)" stroke="rgb(115, 161, 191)" d="M274.5,403.5h89a3,3,0,0,1,3,3v26a3,3,0,0,1,-3,3h-89a3,3,0,0,1,-3,-3v-26a3,3,0,0,1,3,-3z" stroke-width="1"></path><g id="node_text10" fill="black"><text id="kity_text_75" text-rendering="inherit" font-size="18" dy=".8em" y="410.5" x="316.5">get</text></g><g id="node_priority3"><path id="kity_path_98" fill="#006300" stroke="none" d="M292,423c0,3.866,3.134,7,7,7h6c3.866,0,7,-3.134,7,-7V417H292V423z"></path><path id="kity_path_99" fill="#00AF00" stroke="none" d="M312,420c0,3.866,-3.134,7,-7,7H299c-3.866,0,-7,-3.134,-7,-7V417c0,-3.866,3.134,-7,7,-7h6c3.866,0,7,3.134,7,7V420z" opacity="0.8"></path><text id="kity_text_100" text-rendering="geometricPrecision" x="301" y="419.5" text-anchor="middle" font-style="italic" font-size="12" fill="white" dy="4">3</text></g></g><g id="minder_node11"><g id="node_expander14" style="cursor: pointer;"><path id="kity_path_160" fill="white" stroke="gray" d="M445.5,544.5A6,6,0,1,1,433.5,544.5A6,6,0,1,1,445.5,544.5"></path><path id="kity_path_161" fill="none" stroke="gray" d="M435,544.5L444,544.5"></path></g><path id="node_outline15" fill="rgb(238, 243, 246)" stroke="rgb(115, 161, 191)" d="M274.5,528.5h155a3,3,0,0,1,3,3v26a3,3,0,0,1,-3,3h-155a3,3,0,0,1,-3,-3v-26a3,3,0,0,1,3,-3z" stroke-width="1"></path><g id="node_text15" fill="black"><text id="kity_text_85" text-rendering="inherit" font-size="16" dy=".8em" y="536.5" x="316.5">ArrayAccess</text></g><g id="node_priority4"><path id="kity_path_103" fill="#B25000" stroke="none" d="M292,548c0,3.866,3.134,7,7,7h6c3.866,0,7,-3.134,7,-7V542H292V548z"></path><path id="kity_path_104" fill="#FF962E" stroke="none" d="M312,545c0,3.866,-3.134,7,-7,7H299c-3.866,0,-7,-3.134,-7,-7V542c0,-3.866,3.134,-7,7,-7h6c3.866,0,7,3.134,7,7V545z" opacity="0.8"></path><text id="kity_text_105" text-rendering="geometricPrecision" x="301" y="544.5" text-anchor="middle" font-style="italic" font-size="12" fill="white" dy="4">4</text></g></g><g id="minder_node12"><g id="node_expander10" display="none" style="cursor: pointer;"><path id="kity_path_148" fill="white" stroke="gray" d="M472.5,460.5A6,6,0,1,1,460.5,460.5A6,6,0,1,1,472.5,460.5"></path><path id="kity_path_149" fill="none" stroke="gray"></path></g><path id="node_outline11" fill="none" stroke="none" d="M477.5,447.5h76a5,5,0,0,1,5,5v16a5,5,0,0,1,-5,5h-76a5,5,0,0,1,-5,-5v-16a5,5,0,0,1,5,-5z"></path><g id="node_text11" fill="black"><text id="kity_text_77" text-rendering="inherit" font-size="16" dy=".8em" y="452.5" x="482.5">offsetSet</text></g></g><g id="minder_node13"><g id="node_expander11" display="none" style="cursor: pointer;"><path id="kity_path_151" fill="white" stroke="gray" d="M472.5,516.5A6,6,0,1,1,460.5,516.5A6,6,0,1,1,472.5,516.5"></path><path id="kity_path_152" fill="none" stroke="gray"></path></g><path id="node_outline12" fill="none" stroke="none" d="M477.5,503.5h90a5,5,0,0,1,5,5v16a5,5,0,0,1,-5,5h-90a5,5,0,0,1,-5,-5v-16a5,5,0,0,1,5,-5z"></path><g id="node_text12" fill="black"><text id="kity_text_79" text-rendering="inherit" font-size="16" dy=".8em" y="508.5" x="482.5">offsetExists</text></g></g><g id="minder_node14"><g id="node_expander12" display="none" style="cursor: pointer;"><path id="kity_path_154" fill="white" stroke="gray" d="M472.5,572.5A6,6,0,1,1,460.5,572.5A6,6,0,1,1,472.5,572.5"></path><path id="kity_path_155" fill="none" stroke="gray"></path></g><path id="node_outline13" fill="none" stroke="none" d="M477.5,559.5h95a5,5,0,0,1,5,5v16a5,5,0,0,1,-5,5h-95a5,5,0,0,1,-5,-5v-16a5,5,0,0,1,5,-5z"></path><g id="node_text13" fill="black"><text id="kity_text_81" text-rendering="inherit" font-size="16" dy=".8em" y="564.5" x="482.5">offsetUnset</text></g></g><g id="minder_node15"><g id="node_expander13" display="none" style="cursor: pointer;"><path id="kity_path_157" fill="white" stroke="gray" d="M472.5,628.5A6,6,0,1,1,460.5,628.5A6,6,0,1,1,472.5,628.5"></path><path id="kity_path_158" fill="none" stroke="gray"></path></g><path id="node_outline14" fill="none" stroke="none" d="M477.5,615.5h82a5,5,0,0,1,5,5v16a5,5,0,0,1,-5,5h-82a5,5,0,0,1,-5,-5v-16a5,5,0,0,1,5,-5z"></path><g id="node_text14" fill="black"><text id="kity_text_83" text-rendering="inherit" font-size="16" dy=".8em" y="620.5" x="482.5">offsetGet</text></g></g></g></g></svg>